# xmcd CD database file
#
# Track frame offsets:
#	150
#	23532
#	44720
#	61232
#	88525
#	103098
#	116725
#	138014
#	155820
#	179103
#	200821
#	226455
#	242201
#
# Disc length: 3458 seconds
#
# Revision: 0
# Processed by: cddbd v1.5.2PL0 Copyright (c) Steve Scherf et al.
# Submitted via: CDex 1.51
#
DISCID=bb0d800d
DTITLE=Chilly Gonzales - Ivory Tower
DYEAR=2010
DGENRE=Jazz
TTITLE0=Knight Moves
TTITLE1=I Am Europe
TTITLE2=Bittersuite
TTITLE3=Smothered Mate
TTITLE4=The Grudge
TTITLE5=Rococo Chanel
TTITLE6=Never Stop
TTITLE7=Pixel Paxel
TTITLE8=You Can Dance
TTITLE9=Crying
TTITLE10=Final Fantasy
TTITLE11=Siren Song
TTITLE12=Never Stop Chilly Gonzales Rap 
EXTD=YEAR: 2010
EXTT0=
EXTT1=
EXTT2=
EXTT3=
EXTT4=
EXTT5=
EXTT6=
EXTT7=
EXTT8=
EXTT9=
EXTT10=
EXTT11=
EXTT12=
PLAYORDER=
